<svg xmlns="http://www.w3.org/2000/svg"  viewBox="0 0 50 50" width="50px" height="50px"><path fill="#000000" d="M 6 4 C 4.91 4 4 4.91 4 6 L 4 15.75 L 4 19.939453 L 4 22.689453 L 4 26.869141 L 4 29.619141 L 4 33.810547 L 4 44 C 4 45.09 4.91 46 6 46 L 44 46 C 45.09 46 46 45.09 46 44 L 46 6 C 46 4.91 45.09 4 44 4 L 6 4 z M 6 6 L 44 6 L 44 44 L 6 44 L 6 34.869141 L 11.890625 37.990234 C 12.190625 38.150234 12.559609 38.150469 12.849609 37.980469 L 30 28.210938 C 30.6 27.870938 30.680625 27.020078 30.140625 26.580078 L 28.789062 25.449219 C 28.469062 25.179219 28.010625 25.149375 27.640625 25.359375 L 12.849609 33.730469 C 12.549609 33.900469 12.190625 33.91 11.890625 33.75 L 6 30.666016 L 6 27.931641 L 11.759766 30.990234 C 12.069766 31.150234 12.430469 31.150469 12.730469 30.980469 L 29.869141 21.210938 C 30.479141 20.870938 30.549531 20.020078 30.019531 19.580078 L 28.669922 18.449219 C 28.339922 18.179219 27.879531 18.149375 27.519531 18.359375 L 12.720703 26.730469 C 12.430703 26.900469 12.069531 26.91 11.769531 26.75 L 6 23.734375 L 6 21 L 11.640625 23.990234 C 11.940625 24.150234 12.309609 24.150469 12.599609 23.980469 L 29.75 14.210938 C 30.35 13.870938 30.430625 13.020078 29.890625 12.580078 L 28.539062 11.449219 C 28.219062 11.179219 27.760625 11.149375 27.390625 11.359375 L 12.599609 19.730469 C 12.299609 19.900469 11.940625 19.91 11.640625 19.75 L 6 16.796875 L 6 6 z"/></svg>
